# xmcd
#
# Track frame offsets:
#	150
#	16639
#	31505
#	54462
#	71645
#	85757
#	99824
#	120859
#	141788
#	161646
#	176186
#	195465
#
# Disc length: 2898 seconds
#
# Revision: 1
# Processed by: cddbd v1.5.2PL0 Copyright (c) Steve Scherf et al.
# Submitted via: audiograbber 1.83.01
#
DISCID=870b500c
DTITLE=Pat Travers - Blues On Fire (2012)
DYEAR=2012
DGENRE=Blues
TTITLE0=Black Dog Blues
TTITLE1=Nobody's Fault But Mine
TTITLE2=Back Water Blues
TTITLE3=Meat Shakin' Woman
TTITLE4=Easy Rider Blues
TTITLE5=Nobody Knows You When You're Down And Out
TTITLE6=Bulldozer Blues
TTITLE7=You Can't Get That Stuff No More
TTITLE8=Dark Night Blues
TTITLE9=Rock Island Blues
TTITLE10=Jailhouse Blues
TTITLE11=Death Letter
EXTD=
EXTT0=
EXTT1=
EXTT2=
EXTT3=
EXTT4=
EXTT5=
EXTT6=
EXTT7=
EXTT8=
EXTT9=
EXTT10=
EXTT11=
PLAYORDER=
